<svg width="100" height="100" viewBox="0 0 100 100" fill="none" xmlns="http://www.w3.org/2000/svg">
<g clip-path="url(#clip0_5_23)">
<path d="M84.6563 18.1687C78.1726 15.1911 71.3301 13.0672 64.3 11.85C64.2363 11.8393 64.1709 11.8485 64.1127 11.8765C64.0545 11.9045 64.0064 11.9498 63.975 12.0062C63.0938 13.5687 62.1188 15.6125 61.4375 17.2125C53.86 16.0635 46.1525 16.0635 38.575 17.2125C37.8183 15.4287 36.9585 13.6903 36 12.0062C35.9686 11.9498 35.9205 11.9045 35.8623 11.8765C35.8041 11.8485 35.7387 11.8393 35.675 11.85C28.6438 13.0625 21.8 15.1875 15.3188 18.1687C15.263 18.1894 15.2165 18.2293 15.1875 18.2812C2.225 37.65 -1.33125 56.5437 0.412503 75.2C0.425003 75.2917 0.468753 75.3687 0.543753 75.4312C8.09356 81.0201 16.536 85.2889 25.5125 88.0562C25.5759 88.0762 25.644 88.0755 25.7069 88.0542C25.7699 88.0328 25.8244 87.9919 25.8625 87.9375C27.7917 85.3125 29.4958 82.5437 30.975 79.6312C31.0057 79.5713 31.0163 79.5029 31.005 79.4365C30.9937 79.37 30.9613 79.309 30.9125 79.2625L30.8 79.1937C28.1085 78.156 25.5008 76.9128 23 75.475C22.9302 75.4354 22.8783 75.3705 22.855 75.2937C22.8317 75.217 22.8389 75.1342 22.875 75.0625L22.9688 74.9437C23.4979 74.5479 24.0146 74.1417 24.5188 73.725C24.5629 73.6895 24.6159 73.6667 24.6721 73.6589C24.7282 73.6512 24.7854 73.6589 24.8375 73.6812C41.2063 81.1562 58.925 81.1562 75.0938 73.6812C75.1474 73.6564 75.2071 73.6474 75.2657 73.6551C75.3244 73.6629 75.3796 73.6871 75.425 73.725C75.9292 74.1417 76.4458 74.5479 76.975 74.9437C77.019 74.9738 77.0545 75.0147 77.0783 75.0624C77.102 75.1101 77.1132 75.1631 77.1107 75.2163C77.1082 75.2696 77.0921 75.3213 77.064 75.3666C77.0359 75.4118 76.9966 75.4492 76.95 75.475C74.46 76.9355 71.8481 78.1777 69.1438 79.1875C69.1007 79.2031 69.0615 79.228 69.0291 79.2604C68.9967 79.2928 68.9718 79.3319 68.9563 79.375C68.941 79.4166 68.9348 79.461 68.9381 79.5051C68.9413 79.5493 68.9539 79.5923 68.975 79.6312C70.475 82.5375 72.1938 85.3125 74.0813 87.9375C74.1194 87.9919 74.1739 88.0328 74.2368 88.0542C74.2998 88.0755 74.3679 88.0762 74.4313 88.0562C83.4254 85.3042 91.8827 81.0343 99.4375 75.4312C99.475 75.4047 99.5063 75.3703 99.529 75.3303C99.5516 75.2903 99.5652 75.2458 99.5688 75.2C101.656 53.6312 96.075 34.8938 84.7812 18.2875C84.7714 18.2591 84.755 18.2336 84.7332 18.2129C84.7115 18.1922 84.6851 18.1771 84.6563 18.1687ZM33.4188 63.8375C28.4875 63.8375 24.4313 59.3125 24.4313 53.7625C24.4313 48.2125 28.4125 43.6812 33.4188 43.6812C38.4625 43.6812 42.4813 48.2437 42.4063 53.7625C42.4063 59.3125 38.425 63.8375 33.4188 63.8375ZM66.6438 63.8375C61.7188 63.8375 57.6563 59.3125 57.6563 53.7625C57.6563 48.2125 61.6375 43.6812 66.6438 43.6812C71.6875 43.6812 75.7125 48.2437 75.6313 53.7625C75.6313 59.3125 71.6875 63.8375 66.6438 63.8375Z" fill="black"/>
</g>
<defs>
<clipPath id="clip0_5_23">
<rect width="100" height="100" fill="white"/>
</clipPath>
</defs>
</svg>
