<svg width="100" height="100" viewBox="0 0 100 100" fill="none" xmlns="http://www.w3.org/2000/svg">
<g clip-path="url(#clip0_5_27)">
<path d="M56.25 0H68.625C69.525 4.46875 72 10.1063 76.3438 15.7C80.5938 21.1813 86.2313 25 93.75 25V37.5C82.7938 37.5 74.5625 32.4125 68.75 26.0688V68.75C68.75 74.9307 66.9172 80.9725 63.4834 86.1116C60.0496 91.2506 55.1691 95.256 49.4589 97.6212C43.7487 99.9865 37.4653 100.605 31.4034 99.3995C25.3415 98.1938 19.7733 95.2175 15.4029 90.8471C11.0325 86.4767 8.05626 80.9085 6.85047 74.8466C5.64469 68.7847 6.26354 62.5013 8.62878 56.7911C10.994 51.081 14.9994 46.2004 20.1384 42.7666C25.2775 39.3328 31.3193 37.5 37.5 37.5V50C33.7916 50 30.1665 51.0997 27.0831 53.1599C23.9996 55.2202 21.5964 58.1486 20.1773 61.5747C18.7581 65.0008 18.3868 68.7708 19.1103 72.4079C19.8338 76.0451 21.6195 79.386 24.2418 82.0083C26.864 84.6305 30.2049 86.4163 33.8421 87.1397C37.4792 87.8632 41.2492 87.4919 44.6753 86.0727C48.1014 84.6536 51.0298 82.2504 53.0901 79.1669C55.1503 76.0835 56.25 72.4584 56.25 68.75V0Z" fill="black"/>
</g>
<defs>
<clipPath id="clip0_5_27">
<rect width="100" height="100" fill="white"/>
</clipPath>
</defs>
</svg>
