<svg width="100" height="100" viewBox="0 0 100 100" fill="none" xmlns="http://www.w3.org/2000/svg">
<path d="M50.3187 15H50.875C56.0125 15.0188 82.0437 15.2063 89.0625 17.0938C91.1843 17.6698 93.1178 18.7926 94.6697 20.3501C96.2217 21.9075 97.3377 23.8449 97.9062 25.9687C98.5375 28.3437 98.9813 31.4875 99.2813 34.7313L99.3438 35.3813L99.4812 37.0062L99.5313 37.6562C99.9375 43.3687 99.9875 48.7187 99.9937 49.8875V50.3563C99.9875 51.5688 99.9312 57.2812 99.4812 63.2312L99.4313 63.8875L99.375 64.5375C99.0625 68.1125 98.6 71.6625 97.9062 74.275C97.3377 76.3989 96.2217 78.3363 94.6697 79.8937C93.1178 81.4511 91.1843 82.5739 89.0625 83.15C81.8125 85.1 54.2562 85.2375 50.4375 85.2438H49.55C47.6187 85.2438 39.6312 85.2063 31.2562 84.9188L30.1937 84.8813L29.65 84.8563L28.5812 84.8125L27.5125 84.7688C20.575 84.4625 13.9688 83.9688 10.925 83.1438C8.80392 82.5682 6.87093 81.4463 5.31907 79.8901C3.76721 78.3338 2.65077 76.3977 2.08125 74.275C1.3875 71.6688 0.925 68.1125 0.6125 64.5375L0.5625 63.8812L0.5125 63.2312C0.202271 58.9963 0.0313457 54.7524 0 50.5062L0 49.7375C0.0125 48.3938 0.0625 43.75 0.4 38.625L0.44375 37.9813L0.4625 37.6562L0.5125 37.0062L0.65 35.3813L0.7125 34.7313C1.0125 31.4875 1.45625 28.3375 2.0875 25.9687C2.65607 23.8449 3.77208 21.9075 5.324 20.3501C6.87593 18.7926 8.80942 17.6698 10.9312 17.0938C13.975 16.2813 20.5812 15.7812 27.5187 15.4687L28.5812 15.425L29.6562 15.3875L30.1937 15.3688L31.2625 15.325C37.2107 15.1338 43.1613 15.0275 49.1125 15.0063L50.3187 15ZM40 35.0625V65.175L65.9813 50.125L40 35.0625Z" fill="black"/>
</svg>
