<svg width="800" height="800" viewBox="0 0 800 800" fill="none" xmlns="http://www.w3.org/2000/svg">
<circle cx="400.5" cy="400.5" r="370.5" fill="#D9D9D9"/>
<path d="M467.569 578.305H463.942C420.412 578.305 376.883 578.305 333.353 578.305C327.912 578.305 324.285 576.491 322.471 572.864C277.128 514.824 229.971 458.599 184.627 400.559C182.814 396.932 181 395.118 181 391.491C181 335.265 181 280.853 181 224.627C181 222.814 181 221 182.814 221H184.627C278.941 338.893 373.255 456.785 465.756 574.678C465.756 574.678 465.756 576.491 467.569 576.491V578.305Z" fill="black"/>
<path d="M612.668 400.559C599.972 416.883 585.462 433.207 572.766 451.344C569.138 454.971 565.511 456.785 561.883 456.785C518.354 456.785 474.824 456.785 433.109 456.785H431.295C429.481 456.785 427.667 454.971 429.481 453.158C429.481 453.158 429.481 451.344 431.295 451.344C474.824 396.932 516.54 344.334 560.07 289.922C578.207 268.157 596.344 244.579 612.668 222.814C612.668 221 614.482 221 616.295 221H618.109C618.109 222.814 618.109 222.814 618.109 224.627C618.109 279.039 618.109 335.265 618.109 389.677C616.295 395.118 614.482 398.746 612.668 400.559Z" fill="black"/>
</svg>
